<svg xmlns="http://www.w3.org/2000/svg" width="120" height="120" viewBox="0 0 120 136">
    <path fill="none" stroke="red" stroke-width=".004" d="M-81.515-42.613V-44h9.006v1.387h-3.879v2.62h3.394v1.378h-3.394v3.237H-72V-34h-10v-1.378h4.173v-3.237h-3.163v-1.378h3.163v-2.62h-3.688m8.424 5.883.248.298-.885.847-.071.069-.013.013-.014.012-.01.01-.234-.307-.289-.351-.326-.38-.306-.345-.037-.042-.341-.38-.319-.353.001-.001.945-.812.317.32.345.348.35.36.002.004.335.354.302.336m-11.527-6.042L-86-34.292l-.248 1.524-.696 4.268-.162 1-.897 5.502h22.006l-.897-5.502-.162-1-.696-4.268-.248-1.523-1.382-8.48v-.032h-.007L-72-44.587l-5-3.416-5 3.416-2.61 1.784h-.008v.031M-68-44l.2 1.197 1.672 10.035 1.795 10.77L-64-20h-26l2.128-12.768 1.672-10.035L-86-44l1.775-1.183 5.745-3.831h.001L-77-50l9 6m-12.182 18.475 1.975-1.975H-80v-1h1.793l-1.975-1.975.707-.707 1.975 1.975V-31h1v1.793l1.975-1.975.707.707-1.975 1.975H-74v1h-1.793l1.975 1.975-.707.707-1.975-1.975V-25h-1v-1.793l-1.975 1.975Zm0 0" transform="matrix(4.29492 0 0 4.26451 390.838 217.49)"/>
    <path d="M4.46 131.988c0-.066 3.849-23.058 8.552-51.09l8.55-50.968L60.118 4.406l19.16 12.684c10.54 6.976 19.227 12.746 19.305 12.824.125.125 17.191 101.332 17.191 101.953 0 .219-6.195.246-55.656.246-30.61 0-55.652-.054-55.656-.125m102.974-8.703c-.055-.246-3.34-20.219-7.301-44.379-4.031-24.578-7.293-44.008-7.403-44.113-.19-.18-31.617-21.492-32.296-21.902-.317-.192-1.711.714-16.746 10.918-9.02 6.117-16.399 11.195-16.399 11.285 0 .207-14.36 87.789-14.473 88.273l-.086.371h94.797Zm0 0"/>
    <path d="M38.7 69.547v-2.793h18.027V52.797H43v-5.75h13.727V35.719H40.852v-5.75h38.535v5.75H62.684v11.328h14.55v5.75h-14.55v13.957h18.851v5.582H38.7Zm0 0"/>
    <path d="M72.934 64.988c-.957-1.222-3.297-3.914-5.332-6.136-.887-.97-1.614-1.801-1.614-1.844 0-.113 3.672-3.227 3.805-3.227.152 0 5.832 5.754 6.992 7.078.52.598.945 1.153.945 1.235 0 .133-3.859 3.84-4 3.84-.027 0-.386-.426-.796-.946M47.96 110.023l-1.398-1.394 8.594-8.54h-7.855v-4.105h7.855l-8.515-8.46 1.445-1.434 1.445-1.438 4.262 4.23 4.258 4.227v-7.796h4.136v7.796l4.258-4.226 4.262-4.23 1.445 1.437 1.446 1.433-8.516 8.461h7.856v4.106h-7.856l4.297 4.27 4.3 4.269-1.449 1.437-1.445 1.434-4.176-4.145c-2.296-2.28-4.234-4.144-4.3-4.144-.067 0-.121 1.7-.121 3.777v3.778H58.05v-3.778c0-2.078-.055-3.777-.125-3.777s-1.985 1.848-4.258 4.105-4.172 4.106-4.219 4.106-.719-.629-1.488-1.399m0 0"/>
    <path fill="#f9f9f9" d="M13.066 123.328c0-.527 14.391-88.035 14.512-88.226.184-.297 32.3-22.047 32.555-22.047.12 0 7.496 4.937 16.387 10.972 15.273 10.36 16.175 11 16.285 11.535.066.313 3.254 19.668 7.082 43.016 3.832 23.348 7.062 43.024 7.183 43.723l.22 1.273H60.175c-41.79 0-47.11-.027-47.11-.246m40.641-15.723 4.18-4.144v7.469h4.465v-7.47l4.218 4.185 4.215 4.183 1.613-1.598 1.61-1.601-8.43-8.375h7.524V95.82h-7.524l8.352-8.297-1.575-1.554-1.57-1.559-4.219 4.188-4.214 4.183v-7.633h-4.465v7.47l-4.094-4.063c-2.254-2.239-4.168-4.067-4.258-4.067s-.851.684-1.695 1.52l-1.535 1.515 4.175 4.149 4.18 4.148h-7.523v4.434h7.687l-8.515 8.46 1.527 1.516c.844.836 1.566 1.52 1.613 1.52.043 0 1.961-1.867 4.258-4.145m27.996-38.058V66.59H62.848V52.96h14.554v-6.077H62.848v-11H79.55v-6.078H40.684v6.078h15.879v11H42.835v6.078h13.727V66.59H38.535v5.91h43.168Zm-5.707-5.375 2.11-2.012-.45-.586c-.68-.883-3.945-4.347-6.015-6.383l-1.825-1.793-1.39 1.172a118 118 0 0 0-2.086 1.793l-.695.621 2.582 2.871c1.418 1.583 3.226 3.672 4.011 4.641.79.973 1.48 1.75 1.54 1.727.058-.024 1.054-.946 2.218-2.051m0 0"/>
</svg>
