<svg xmlns="http://www.w3.org/2000/svg" width="120" height="120" viewBox="0 0 120 136">
    <path fill="none" stroke="red" stroke-width=".004" d="M60 30h26l-.462 2.768L82.2 52.803 82 54l-1.775 1.184-5.745 3.83h-.001L73 60l-9-6-.2-1.197-3.338-20.035-.129-.77L60 30m9.818 5.525.707-.707 1.975 1.975V35h1v1.793l1.975-1.975.707.707-1.975 1.975H76v1h-1.793l1.975 1.975-.707.707-1.975-1.975V41h-1v-1.793l-1.975 1.975-.707-.707 1.975-1.975H70v-1h1.793l-1.975-1.975M78 45.378h-4.173v3.237h3.163v1.378h-3.163v2.62h3.688V54h-9.006v-1.387h3.879v-2.62h-3.394v-1.378h3.394v-3.237H68V44h10v1.378m-6.312 2.26-.001.002-.945.812-.317-.32-.345-.348-.35-.36-.098-.105-.24-.253-.301-.336-.248-.298.79-.755.156-.152.01-.009.013-.013.014-.012.01-.01.234.307.289.351.326.38.343.387.341.38.319.353m8.93 5.133L82 44.29l1.878-11.523.125-.77H61.997l.125.77L64 44.291l1.382 8.48v.032h.007L68 54.587l5 3.416 5-3.416.859-.587 1.752-1.197h.007Zm0 0" transform="matrix(4.29492 0 0 4.26451 -253.4 -123.67)"/>
    <path d="m40.84 119.297-19.278-12.762-8.55-50.969C8.309 27.536 4.46 4.543 4.46 4.476c.004-.07 25.047-.124 55.656-.124 49.461 0 55.656.027 55.656.246 0 .136-3.835 23.082-8.52 50.988-4.683 27.91-8.515 50.781-8.515 50.824 0 .047-8.691 5.836-19.312 12.867L60.117 132.06Zm35.648-6.57c8.91-6.051 16.258-11.055 16.32-11.122.067-.066 3.36-19.886 7.325-44.046 3.96-24.16 7.246-44.133 7.3-44.38l.094-.452H12.73l.086.37c.047.204 3.325 20.137 7.286 44.298 3.957 24.16 7.214 43.988 7.238 44.062.05.176 32.562 22.262 32.777 22.266.094.004 7.457-4.946 16.371-10.996m0 0"/>
    <path d="M40.852 103.621v-2.875h16.703V89.418H43v-5.75h14.555V69.711H38.699v-5.586h42.836v5.582l-17.945.086-.086 13.875h13.73v5.746l-6.82.043-6.824.043v11.164l15.797.086v5.746H40.852Zm0 0"/>
    <path d="M47.45 79.77c-3.055-3.09-4.997-5.247-4.91-5.45.026-.07.933-.968 2.01-1.996l1.966-1.87.433.57c.606.792 5.059 5.917 6.344 7.3l1.062 1.145-1.882 1.605c-1.04.887-1.946 1.61-2.016 1.61s-1.426-1.313-3.008-2.914m.637-29.395-1.445-1.437 4.257-4.227 4.258-4.23h-7.855v-4.106h7.855l-4.3-4.27-4.297-4.27 1.445-1.437 1.445-1.433 4.18 4.144c2.297 2.278 4.23 4.145 4.3 4.145.067 0 .122-1.7.122-3.777v-3.778h4.136v3.778c0 2.078.055 3.777.122 3.777.066 0 2.004-1.867 4.3-4.145l4.176-4.144 1.445 1.433 1.45 1.438-4.301 4.27-4.297 4.269h7.856v4.105h-7.856l4.258 4.23 4.258 4.227-1.446 1.438-1.445 1.434-4.262-4.227-4.257-4.227v7.797H58.05v-7.797l-4.258 4.227-4.262 4.227Zm0 0"/>
    <path fill="#f9f9f9" d="M43.914 112.555c-8.91-6.047-16.254-11.047-16.316-11.114-.149-.16-14.61-88.363-14.504-88.468.047-.047 21.25-.063 47.125-.04l47.043.04-7.235 44.086c-3.98 24.246-7.265 44.164-7.304 44.257-.047.133-29.72 20.375-32.176 21.957l-.43.278Zm35.637-8.934v-3.039H63.84v-11h13.562v-6.078H63.84V69.875h17.863v-5.914H38.535v5.914h18.856v13.629H42.836v6.078H57.39v11H40.684v6.078H79.55Zm-26.996-22.34c1.113-.949 2.023-1.765 2.023-1.808s-.691-.836-1.539-1.758c-2.156-2.356-4.684-5.27-5.633-6.492-.437-.57-.86-1.016-.933-.989-.075.028-1.075.961-2.227 2.075l-2.09 2.023.922 1.117c1 1.215 7.164 7.563 7.34 7.563.062 0 1.023-.778 2.137-1.73m1.238-33.37 4.094-4.063v7.468h4.465v-7.632l4.214 4.183 4.22 4.184 1.57-1.555 1.574-1.555-8.352-8.296h7.524V36.21h-7.524l8.43-8.375-1.61-1.602-1.613-1.597-4.215 4.183-4.218 4.184v-7.469h-4.465v7.469l-4.219-4.184-4.215-4.183-1.574 1.554-1.574 1.559 4.261 4.23 4.258 4.23h-7.687v4.435h7.523l-4.176 4.148-4.175 4.145 1.527 1.519c.844.836 1.605 1.52 1.695 1.52s2.008-1.832 4.262-4.067m0 0"/>
</svg>
