<svg xmlns="http://www.w3.org/2000/svg" width="120" height="120" viewBox="0 0 120 118">
    <path stroke="red" stroke-width=".004" d="m79.092-77.537.234.315.202.336.168.355.132.37.095.381.058.388L80-75l-.02.392-.058.388-.095.38-.04.112-.092.26-.168.354-.202.336-.234.316-.089.098-.175.192-.189.172-.1.092-.317.234-.336.202-.355.169-.37.131-.161.04V-67h4.132l.04-.16.132-.371.168-.355.202-.336.234-.316.012-.013.078-.086.133-.145.04-.046.193-.175.098-.089.316-.234.247-.149.09-.053.354-.168.37-.132.381-.095.388-.058L85-70l.392.02.388.057.236.058.145.037.37.132.355.168.336.202.316.234.097.089.193.175.172.19.092.1.234.316.202.336.168.355.132.37.04.16H93v-4.13l-.16-.04-.371-.132-.355-.17-.336-.201-.316-.234-.1-.09-.144-.132-.046-.042-.174-.191-.09-.099-.234-.316-.148-.247-.054-.089-.168-.355-.092-.26-.04-.11-.095-.381-.058-.388L90-75l.02-.392.057-.388.095-.38.132-.371.168-.355.202-.336.234-.315.09-.1.17-.187.004-.004.192-.175.098-.089.316-.234.336-.202.355-.168.37-.132.16-.04V-83H77v4.132l.161.04.37.132.355.168.336.202.316.234.098.089.156.142.036.033.004.004.171.188.088.099M76-71.998l.04-.002.252-.012.292-.043.286-.072.277-.1.267-.125.253-.152.237-.175.218-.197.198-.219.176-.237.152-.253.067-.143.06-.123.098-.277.072-.286.043-.292.015-.294-.015-.294-.043-.291-.048-.19-.024-.097-.099-.277-.126-.266-.152-.253-.176-.237-.198-.218-.218-.198-.237-.175-.253-.152-.267-.126-.14-.05-.137-.05-.286-.071-.292-.043-.292-.015V-84h18v5.997l-.292.015-.293.043-.285.072-.138.05-.139.049-.267.126-.253.152-.237.175-.218.198-.198.218-.176.237-.152.253-.126.266-.099.277-.024.097-.048.19-.043.29-.014.295.014.294.043.292.072.286.099.277.058.123.068.143.152.253.176.237.064.07.134.149.218.197.237.175.253.152.267.126.277.1.285.07.293.044.168.008.124.006V-66h-5.997L88-66.057l-.012-.235-.043-.292-.072-.287-.1-.276-.125-.267-.152-.253-.175-.237-.198-.218-.218-.198-.237-.176-.253-.152-.266-.126-.133-.047-.144-.052-.286-.072-.292-.043-.294-.015-.294.015-.292.043-.286.072-.16.057-.117.042-.266.126-.253.152-.237.176-.07.063-.148.135-.199.218-.174.237-.152.253-.126.267-.052.147-.047.13-.072.286-.043.292-.012.252-.002.04H76v-5.998" transform="matrix(3.7298 0 0 3.7001 -256.893 336.708)"/>
    <path fill="#f9f9f9" d="M30.313 81.176v-7.598l.675-.133c.371-.07 1.469-.52 2.438-.992 1.422-.695 2.133-1.223 3.652-2.726 1.59-1.57 2.04-2.172 2.86-3.82.535-1.075 1.109-2.606 1.273-3.4.363-1.71.398-4.487.086-6.19-.926-5.044-4.867-9.532-9.844-11.208l-1.039-.351-.055-7.551-.05-7.547h59.59l-.004 7.567v7.57l-1.23.379c-2.712.84-5.665 3.133-7.462 5.8-1.172 1.743-1.726 3.079-2.191 5.313-1.453 6.98 2.39 14.066 9.05 16.691.762.301 1.489.547 1.61.547.156 0 .226 2.305.226 7.625v7.621l-7.609-.054-7.613-.051-.352-1.031c-1.219-3.555-3.847-6.567-7.273-8.332-4.434-2.29-9.965-2.18-14.41.285-2.73 1.515-5.235 4.387-6.418 7.36-.301.757-.547 1.476-.547 1.597 0 .156-2.324.223-7.684.223h-7.68Zm0 0"/>
</svg>
