<svg xmlns="http://www.w3.org/2000/svg" width="120" height="120" viewBox="0 0 120 120">
    <path stroke="red" stroke-width=".015" d="m28.172 14.866 1.75-2.28.643-.835 2.273-1.746.842-.647 2.653-1.1.979-.405 2.848-.373 1.046-.14 3.763.494.131.019 3.33 1.38.302.125 3.115 2.393 2.393 3.115 1.133 2.74.372.892.377 2.848.135 1.046-.372 2.837-.14 1.054-1.505 3.635-2.393 3.115-3.115 2.393-.301.125-2.352.978-.979.402-.131.02-2.72.353-1.043.14-2.837-.377-1.054-.136-3.635-1.505-.662-.508-1.618-1.241-.835-.64-1.75-2.28-.643-.84-1.1-2.652-.405-.979-.512-3.894.512-3.894.368-.892.73-1.758.407-.978m63.696 0 1.137 2.736.368.892.377 2.848.135 1.046-.376 2.837-.136 1.054-1.098 2.653-.407.982-2.382 3.1-.01.015-3.116 2.393-3.632 1.505-3.469.452-.425.06-3.763-.493-.131-.019-3.632-1.505-3.115-2.393-.011-.015-1.739-2.258-.64-.842-1.106-2.653-.402-.979-.512-3.894.512-3.894.368-.892.73-1.758.407-.978 1.75-2.284.639-.835 2.28-1.746.84-.647 3.63-1.505.132-.02 3.763-.492.425.056 3.47.452 3.63 1.509 3.116 2.393 2.393 3.115m-24.322 32.12 1.881 1.445 1.234.948 2.393 3.115 1.505 3.632.14 1.057.372 2.837-.5 3.823-.012.071-1.098 2.653-.407.979-2.393 3.115-3.115 2.393-3.632 1.505-.071.012-2.777.361-1.046.14-2.837-.373-1.057-.14-2.65-1.098-.978-.407-3.123-2.393-.944-1.234-1.445-1.881-1.505-3.632-.512-3.894.512-3.894 1.505-3.632 1.445-1.881.308-.399.64-.835 1.234-.948 1.881-1.445 3.632-1.505 3.894-.512 3.894.512 3.632 1.505M31.43 16.748l-.357.858-.772 1.866-.383 2.92.383 2.92 1.13 2.724 1.587 2.07.207.267 2.337 1.795 2.724 1.129 2.92.383 2.92-.383.843-.347 1.881-.782 1.58-1.216.757-.58 1.795-2.336 1.129-2.724.383-2.92-.383-2.92-.776-1.866-.353-.858-1.795-2.337-.756-.58-1.58-1.215-1.882-.779-.843-.35-2.92-.383-2.92.383-2.724 1.13-2.333 1.794-1.799 2.337m50.324-5.26-2.495-.328-.425-.056-2.92.383-.843.35-1.881.78-2.333 1.794-1.799 2.337-.357.858-.772 1.866-.383 2.92.383 2.92 1.13 2.724 1.794 2.337 2.337 1.795 1.881.782.17.068.673.279 2.92.383.425-.056 2.495-.327.67-.279 2.054-.85 2.337-1.795 1.795-2.337 1.129-2.724.383-2.92-.383-2.92-.776-1.866-.353-.858-1.795-2.337-2.333-1.795-2.728-1.129M69.796 54.376 68 52.039l-2.337-1.795-1.821-.756-.903-.373-2.92-.383-2.92.383-2.724 1.13-2.337 1.794-1.795 2.333-1.129 2.728-.383 2.92.383 2.92.373.903.756 1.821 1.795 2.333 2.333 1.799 2.728 1.129 2.92.383 2.92-.383.903-.377 1.821-.752L67.997 68l1.799-2.337.752-1.821.377-.903.383-2.92-.383-2.92Zm0 0"/>
    <path fill="#f9f9f9" d="M38.598 33.14c-3.032-.753-5.965-3.18-7.399-6.113-.75-1.535-.855-2.074-.867-4.554-.016-2.602.059-2.965.953-4.785 1.149-2.34 3.29-4.399 5.684-5.481 2.351-1.062 5.66-1.094 8.25-.082 4.531 1.773 7.52 6.73 6.957 11.535-.203 1.762-1.492 4.73-2.563 5.914-2.77 3.059-7.238 4.504-11.015 3.567m36.707-.341c-3.04-1.042-5.153-3.015-6.625-6.183-.637-1.367-.754-2.047-.75-4.289.007-3.433.847-5.414 3.316-7.828 4.3-4.21 10.856-4.2 15.168.02 2.434 2.382 3.3 4.378 3.328 7.664.024 2.93-.535 4.722-2.14 6.859-2.801 3.73-7.872 5.281-12.297 3.758m-16.91 38.14c-9.63-1.511-12.75-13.847-4.98-19.699 4.847-3.656 11.898-2.676 15.382 2.14 2.43 3.356 2.875 6.708 1.43 10.798-.868 2.449-3.778 5.257-6.344 6.113-2.414.805-3.598.945-5.488.648m0 0"/>
</svg>
