<svg xmlns="http://www.w3.org/2000/svg" width="120" height="120" viewBox="0 0 120 118">
    <path stroke="red" stroke-width=".004" d="M76.003-84h17.995v12.997L93.94-71l-.065.004-.366.018-.486.071-.476.12-.462.164-.444.21-.42.254-.396.293-.363.329-.33.364-.02.028-.272.367-.253.421-.21.444-.165.463-.119.476-.072.486-.022.45-.002.038h-7.995L81-66.057l-.022-.431-.072-.486-.119-.476-.165-.463-.21-.444-.253-.421-.291-.395-.331-.364-.363-.329-.395-.293-.42-.253-.445-.21-.09-.032-.372-.133-.476-.118-.486-.073-.487-.025V-84m4.986 14.666.01.02.293.486.251.532.2.555.142.57.025.17h6.18l.025-.17.142-.57.2-.555.25-.532.293-.487.01-.019.162-.216.19-.256.182-.201.213-.235.2-.181.155-.14.082-.075.473-.35.018-.012.487-.292.532-.251.554-.199.571-.143.17-.026V-83H77v11.09l.17.025.573.143.081.03.471.169.533.251.481.29.024.013.473.35.437.397.395.436.158.214.193.258" transform="matrix(3.7298 0 0 3.7001 -256.893 336.708)"/>
    <path fill="#f9f9f9" d="M48.676 88.512a57 57 0 0 1-.38-1.52c-1.491-6.234-6.28-11.976-12.23-14.668-1.468-.664-3.52-1.351-4.687-1.57l-.988-.188V29.711h59.453v40.863l-.914.188c-.508.101-1.59.406-2.41.675a22.16 22.16 0 0 0-14.043 13.907c-.29.84-.606 1.937-.707 2.437l-.188.91H60.156c-9.011 0-11.437-.035-11.48-.18m0 0"/>
</svg>
