<svg xmlns="http://www.w3.org/2000/svg" width="120" height="120" viewBox="0 0 120 120">
    <path stroke="red" stroke-width=".015" d="m74.952 17.576.06 1.238.011.233v41.391l-.071 1.475-.219 1.46-.357 1.434-.497 1.392-.632 1.336-.76 1.264-.5.681-.38.508-.34.373-.496.549-.158.17-.722.658-.369.338-1.19.877-1.263.76-1.34.632-1.392.497-1.43.357-1.46.219-1.475.071-1.475-.071-1.46-.219-.467-.116-.967-.241-1.392-.497-1.336-.632-1.264-.76-1.189-.88-.369-.335-.722-.659-.655-.718-.339-.373-.88-1.19-.76-1.263-.632-1.336-.497-1.392-.357-1.43-.219-1.464-.071-1.475v-41.39l.015-.234.056-1.242.219-1.46.357-1.43.497-1.396.632-1.335.76-1.265.88-1.189.34-.372.496-.546.158-.173.718-.655.377-.338 1.185-.88 1.264-.761 1.336-.632 1.392-.497.967-.24.467-.117 1.46-.219 1.475-.071 1.475.071 1.46.219 1.43.357 1.4.497 1.332.632 1.264.76 1.189.88.376.34.715.654.651.719.339.372.384.508.5.681.76 1.265.632 1.335.497 1.393.357 1.433.219 1.464M71.264 60.43V19.047l-.004-.233-.041-.866-.162-1.098-.27-1.076-.373-1.043-.478-1.004-.568-.952-.663-.892-.74-.82-.821-.745-.892-.663-.952-.572-1-.474-.02-.007-1.023-.365-1.076-.271-1.099-.162-1.11-.053-1.103.053-1.102.162-1.076.27-.12.046-.922.327-1.001.474-.952.572-.892.663-.82.745-.745.82-.659.892-.572.952-.474 1.004-.376 1.043-.264 1.076-.165 1.098-.038.866-.015.233v.011h.008V60.43h-.008v.008l.053 1.099.162 1.098.27 1.077.377 1.042.47 1.005.572.952.659.891.745.82.82.746.892.666.952.568 1 .474.922.331.12.042 1.077.27 1.102.162 1.103.057 1.106-.057 1.099-.162 1.076-.27 1.024-.365.018-.008 1.001-.474.952-.568.892-.666.82-.745.742-.82.662-.892.568-.952.478-1.005.373-1.042.27-1.077.162-1.098.05-1.099v-.008m-14.83-41.372h7.53v22.333h-7.526Zm0 0"/>
    <path fill="#f9f9f9" d="M57.613 71.273c-3.418-.832-6.324-3.195-7.8-6.351l-.79-1.68V16.145l.868-1.774c1.105-2.254 3.097-4.246 5.355-5.355 1.606-.786 2.059-.871 4.738-.871 2.645 0 3.141.09 4.653.832 2.332 1.144 4.23 3.082 5.363 5.472l.941 1.992v46.801l-.816 1.664c-1.664 3.383-4.598 5.703-8.156 6.45-1.89.394-2.434.382-4.356-.083m6.367-41.058V18.957h-7.699v22.512h7.7Zm0 0"/>
</svg>
