<svg xmlns="http://www.w3.org/2000/svg" width="120" height="120" viewBox="0 0 120 120">
    <path stroke="red" stroke-width=".015" d="m44.924 81.529.045.075.007.015 1.088 1.81.94 2.002.757 2.084.538 2.149.094.643h23.254l.094-.636.538-2.144.749-2.089.809-1.716.087-.188.048-.097 1.088-1.814.011-.019.042-.075.628-.847.692-.93.678-.752.36-.399.452-.489.008-.015 1.637-1.475 1.065-.794.71-.527.076-.045.011-.007 1.814-1.092 2.002-.94 2.084-.753 2.149-.538.64-.094v-41.73H29.918v41.73l.64.094 2.144.538 2.088.745 1.731.82.267.128 1.814 1.092.019.007.071.038.715.534.136.098.93.692.752.681.399.358.493.451.007.004.888.978.59.659.686.926.64.854m7.747-55.19h41.21v48.917h-.15l-1.686.087-1.825.27-.862.215-.113.026-.82.207-1.742.621-1.67.79-1.581.952-.245.177-1.245.922-.403.365-.967.877-1.238 1.366-1.038 1.403-.064.087-.952 1.58-.79 1.675-.621 1.738-.448 1.791-.124.836-.05.33-.097.663-.083 1.637v.2H44.97v-.151l-.087-1.686-.27-1.829-.448-1.79-.621-1.743-.53-1.121-.26-.546-.952-1.588-.064-.083-.113-.158-.922-1.245-1.242-1.37-1.366-1.238-1.49-1.102-1.584-.952-1.67-.79-1.743-.621-.914-.23-.873-.218-1.167-.173-.662-.098-1.64-.083h-.196V26.34h26.528M44.97 45.154h30.1v9.4l-.545.026-.55.079-.538.135-.527.188-.5.237-.478.286-.444.331-.414.373-.32.354-.052.056-.332.444-.286.478-.237.5-.188.523-.139.538-.075.55-.023.553.008.21.015.343.075.55.14.538.187.523.237.5.286.478.332.444.372.41.414.376.444.328.478.286.504.24.523.189.399.094.14.037.549.08.545.03v9.395h-9.396l-.03-.545-.079-.55-.135-.542-.188-.519-.237-.504-.286-.478-.331-.44-.377-.414-.406-.376-.444-.332-.478-.286-.406-.191-.094-.046-.527-.188-.53-.135-.554-.08-.553-.026-.553.027-.55.079-.489.124-.049.011-.526.188-.497.237-.478.286-.444.332-.414.376-.369.406-.33.448-.287.474-.237.508-.188.52-.135.541-.08.55-.022.545h-9.407V65.86l.55-.03.549-.079.538-.135.263-.098.26-.09.504-.237.482-.286.44-.331.414-.377.369-.406.335-.444.286-.478.237-.5.188-.527.135-.534.075-.55.023-.342.011-.211-.03-.553-.079-.55-.135-.538-.188-.523-.237-.5-.286-.478-.335-.444-.05-.056-.32-.354-.413-.376-.44-.328-.482-.286-.504-.237-.527-.188-.534-.135-.55-.08-.545-.026v-9.4"/>
    <path fill="#f9f9f9" d="M48.418 89.8c-1.215-5.355-3.629-9.542-7.363-12.777-2.797-2.421-5.715-3.941-9.336-4.859l-1.625-.414-.04-20.793-.034-20.789h60.039v41.547l-.407.094c-3.804.863-6.605 2.117-9.379 4.199-4.242 3.187-7.117 7.574-8.398 12.832l-.336 1.367H48.512Zm6.125-15.402c.555-3.164 3.695-5.3 6.664-4.543 1.211.313 1.883.68 2.656 1.446 1.028 1.027 1.364 1.719 1.723 3.562l.078.407h9.457v-9.41l-.855-.16c-3.414-.638-5.532-4.009-4.473-7.13q.583-1.726 1.789-2.68c.695-.55 2.102-1.167 2.68-1.171.906-.008.86.254.86-4.899v-4.718H44.948l.078 9.539.782.093c1.574.196 3.347 1.465 4.097 2.938 1.7 3.34-.343 7.355-4.078 8.012l-.871.152v9.434h9.43Zm0 0"/>
</svg>
