<svg xmlns="http://www.w3.org/2000/svg" width="120" height="120" viewBox="0 0 120 120">
    <path stroke="red" stroke-width=".015" d="m44.924 81.529.045.075.007.015 1.088 1.81.94 2.002.757 2.084.538 2.149.094.643h23.254l.094-.636.538-2.144.749-2.089.82-1.738.124-.263 1.088-1.814.011-.019.042-.075.53-.715.098-.132.692-.93.678-.752.36-.399.452-.489.008-.015 1.637-1.475 1.065-.794.71-.527.076-.045.011-.007 1.814-1.092 2.002-.94 2.084-.753 2.149-.538.64-.094v-41.73H29.918v41.73l.64.094 2.144.538 2.088.745 1.731.82.267.128 1.814 1.092.019.007.071.038.715.534.136.098.93.692.752.681.399.358.493.451.007.004 1.479 1.637 1.215 1.637.106.143m9.96-4.62-1.204-1.653-.18-.252-.727-2.243V70.41l.726-2.24 1.385-1.907 1.904-1.38 2.239-.73h2.355l2.239.73 1.904 1.38 1.385 1.908.73 2.239v2.351l-.73 2.243-.185.252-1.2 1.652-1.904 1.385-2.239.726h-2.355l-2.24-.726-1.903-1.385M52.679 26.34h41.206v48.916h-.15l-1.686.087-1.825.27-.862.215-.933.233-1.742.621-1.67.79-1.581.952-.087.06-.158.117-1.245.922-1.37 1.242-1.238 1.366-1.038 1.403-.064.087-.952 1.58-.79 1.675-.621 1.738-.226.918-.222.873-.173 1.167-.098.662-.083 1.637v.2H44.97v-.151l-.087-1.686-.064-.433-.082-.56-.125-.836-.447-1.79-.621-1.743-.79-1.667-.952-1.588-.064-.083-.113-.158-.922-1.245-1.242-1.37-1.366-1.238-.978-.726-.512-.376-1.584-.952-1.67-.79-1.743-.621-.914-.23-.873-.218-1.167-.173-.662-.098-1.64-.083h-.196V26.34h26.528m-.44 16.056.53.387 1.373.997 1.385 1.904.726 2.24v2.355l-.726 2.239-1.385 1.904-1.373 1-.53.384-2.243.73h-2.352l-2.239-.73-1.908-1.384-1.38-1.904-.73-2.24v-2.355l.73-2.239 1.38-1.904 1.908-1.384 2.239-.727H50l2.242.727m17.986-.727h2.348l2.243.727 1.904 1.384 1.385 1.904.726 2.24v2.355l-.726 2.239-1.385 1.904-1.904 1.384-2.243.73h-2.351l-2.235-.73-.35-.252-1.562-1.129-1.38-1.907-.73-2.24v-2.355l.73-2.239 1.38-1.904 1.562-1.128.35-.256 2.235-.727"/>
    <path fill="#f9f9f9" d="M48.418 89.8c-1.215-5.355-3.629-9.542-7.363-12.777-2.797-2.421-5.715-3.941-9.336-4.859l-1.625-.414-.04-20.793-.034-20.789h60.039v41.547l-.407.094c-3.804.863-6.605 2.117-9.379 4.199-4.242 3.187-7.117 7.574-8.398 12.832l-.336 1.367H48.512Zm14.234-11.097c2.262-.808 3.856-2.402 4.664-4.664 2.067-5.793-3.582-11.559-9.418-9.613-4.933 1.64-6.793 7.41-3.75 11.629 1.895 2.625 5.457 3.734 8.504 2.648M51.238 56.227c3.102-1.067 5.102-3.868 5.102-7.13 0-6.148-6.977-9.699-11.953-6.081-1.239.898-2.23 2.277-2.735 3.789-1.933 5.804 3.778 11.418 9.586 9.422m22.48.02c2.348-.778 4.09-2.52 4.86-4.86 1.899-5.77-3.676-11.34-9.445-9.442-3.195 1.051-5.25 3.852-5.25 7.153 0 5.136 4.976 8.757 9.836 7.148m0 0"/>
</svg>
