<svg xmlns="http://www.w3.org/2000/svg" width="120" height="120" viewBox="0 0 120 120">
    <path stroke="red" stroke-width=".015" d="m42.117 78.105.007.007 1.479 1.637 1.32 1.78.046.075.007.015 1.088 1.81.049.105.895 1.897.753 2.084.538 2.149.094.643h23.254l.094-.636.538-2.144.749-2.089.896-1.904.048-.097 1.088-1.814.011-.019.042-.075.628-.847.692-.93.678-.752.36-.399.452-.489.008-.015 1.328-1.193.309-.282 1.065-.794.71-.527.076-.045.011-.007 1.814-1.092 2.002-.94 2.084-.753 2.149-.538.64-.094v-41.73H29.918v41.73l.64.094 2.144.538 2.08.745 1.74.82.266.128 1.814 1.092.019.007.071.038.715.534.136.098.93.692.251.23.5.451.4.358.493.451m11.645-2.434-.252-.418-.128-.218-.316-.67-.252-.692-.177-.719-.105-.73-.038-.734V48.917l.038-.738.105-.73.181-.715.248-.696.316-.67.377-.632.444-.594.496-.546.546-.497.595-.44.297-.177.113-.068.225-.135.666-.316.693-.248.719-.181.73-.105.737-.038.738.038.73.105.718.18.693.249.67.316.225.135.049.03.357.215.595.44.546.497.496.546.44.594.377.632.32.67.248.692.18.72.106.73.038.737v22.576l-.038.738-.105.73-.181.719-.248.692-.316.67-.132.214-.248.414-.44.602-.497.542-.546.5-.595.437-.357.214-.275.162-.67.32-.692.248-.715.181-.733.105-.738.038-.738-.038-.73-.105-.714-.18-.697-.249-.67-.312-.221-.14-.113-.063-.297-.181-.595-.444-.546-.493-.496-.546-.44-.594M52.678 94.07h-7.71v-.15l-.083-1.69-.15-.993-.12-.836-.449-1.79-.62-1.743-.79-1.667-.953-1.588-.064-.082-.113-.158-.899-1.216-.022-.03-1.242-1.37-1.366-1.238-1.49-1.102-1.584-.952-1.671-.79-.331-.12-1.411-.501-.915-.23-.872-.218-1.167-.173-.662-.098-1.64-.083h-.2V26.34h67.73v48.916h-.15l-1.686.087-1.825.27-.862.215-.933.233-1.742.621-1.67.79-1.581.952-.245.177-1.245.922-1.37 1.242-1.238 1.366-.079.113-.96 1.29-.063.087-.952 1.58-.79 1.675-.621 1.738-.448 1.791-.124.836-.05.33-.097.663-.083 1.637v.2H52.683m5.456-45.147H61.9v15.044h-3.76V48.924m-1.882 15.044v7.518h-.007v.007l.015.362.019.12.037.248.09.358.125.35.158.335.188.32.226.297.244.274.275.249.3.226.136.079.177.112.335.151.35.128.357.09.37.057.15.007.188.011h.03l.222-.01.15-.008.366-.057.357-.09.35-.124.339-.158.112-.068.2-.124.3-.222.272-.249.248-.274.226-.297.188-.32.15-.339.129-.346.09-.358.056-.368.02-.362v-.007h-.012V48.924h.011v-.007l-.019-.362-.056-.368-.09-.358-.125-.35-.158-.335-.188-.32-.222-.297-.248-.274-.275-.249-.297-.226-.2-.116-.112-.075-.34-.151-.349-.128-.357-.09-.37-.057-.368-.015h-.03l-.339.015-.369.057-.357.09-.35.124-.335.158-.177.11-.139.082-.297.222-.275.249-.248.274-.222.297-.188.32-.158.339-.12.346-.095.358-.056.368-.012.301-.003.06v.016h.007v15.036"/>
    <path fill="#f9f9f9" d="M48.418 89.8c-1.215-5.355-3.629-9.542-7.363-12.777-2.797-2.421-5.715-3.941-9.336-4.859l-1.625-.414-.04-20.793-.034-20.789h60.039v41.547l-.407.094c-3.511.796-5.773 1.742-8.496 3.562-4.601 3.07-7.922 7.887-9.281 13.469l-.336 1.367H48.512Zm13.035-10.843c2.785-.508 5.172-2.75 5.902-5.543.34-1.305.34-25.152 0-26.457-.753-2.883-3.347-5.168-6.289-5.543-3.726-.473-7.035 1.59-8.304 5.168l-.34.961v25.14l.332 1.051c1.164 3.707 4.851 5.918 8.7 5.223m0 0"/>
    <path fill="#f9f9f9" d="M58.492 74.816c-.836-.414-1.394-.988-1.797-1.84l-.351-.738V60.336c0-7.75.054-12.098.152-12.457.234-.848 1.016-1.754 1.918-2.23.719-.38.922-.419 1.797-.36 1.668.113 2.93 1.148 3.379 2.766.09.324.144 4.996.144 12.14 0 12.797.02 12.532-.906 13.653-.98 1.183-3.004 1.636-4.336.968m3.469-18.402v-7.613h-3.844v15.23h3.844Zm0 0"/>
</svg>
