<svg xmlns="http://www.w3.org/2000/svg" width="120" height="120" viewBox="0 0 120 118">
    <path stroke="red" stroke-width=".004" d="m81.874-84 .002.04.012.252.032.217.01.075.073.286.1.277.125.267.152.253.175.237.198.218.149.135.069.063.237.176.253.152.266.126.24.085.038.014.285.072.292.043.294.014.294-.014.292-.043.286-.072.268-.096.009-.003.267-.126.252-.152.237-.176.071-.065.147-.133.198-.218.177-.237.15-.253.126-.267.052-.147.048-.13.07-.286.044-.292.012-.236.002-.056h5.998v5.997L93.82-78l-.236.012-.292.043-.286.072-.137.05-.14.049-.267.126-.253.152-.237.175-.218.198-.199.218-.175.237-.152.253-.126.266-.1.277-.024.097-.047.19-.043.29-.014.295.014.294.043.292.071.286.1.277.059.123.067.143.152.253.175.237.064.07.135.149.218.197.237.175.253.152.268.126.276.1.286.07.292.044.292.014V-66h-18v-5.998l.292-.014.292-.043.287-.072.277-.1.266-.125.252-.152.238-.175.218-.197.199-.219.175-.237.152-.253.068-.143.057-.123.1-.277.072-.286.043-.292.015-.294-.015-.294-.043-.293-.048-.188-.024-.097-.1-.277-.125-.266-.152-.253-.175-.237-.199-.218-.218-.198-.238-.175-.252-.152-.266-.126-.14-.05-.137-.05-.287-.071-.292-.043-.292-.015V-84h5.998" transform="matrix(3.7298 0 0 3.7001 -256.893 336.708)"/>
</svg>
