<svg xmlns="http://www.w3.org/2000/svg" width="120" height="120" viewBox="0 0 120 120">
    <path stroke="red" stroke-width=".015" d="m30.75 87.19 2.273-1.745.846-.647 3.628-1.505 3.894-.512 1.806.237 1.957.26.131.015 3.632 1.505 3.115 2.393.339.436 1.407 1.837.647.842 1.1 2.653.405.979.512 3.894-.512 3.894-.541 1.314-.557 1.34-.407.978-1.75 2.276-.643.84-3.115 2.392-3.632 1.505-.131.02-1.957.255-.76.098-1.046.14-3.894-.513-3.628-1.505-3.12-2.393-2.392-3.115-.572-1.378-.392-.94-.541-1.317-.512-3.891.512-3.894.933-2.25.165-.4.407-.978 1.753-2.284.64-.835m58.91 0 1.746 2.273.647.842 1.1 2.653.405.979.512 3.894-.512 3.894-.541 1.314-.964 2.318-2.393 3.115-.226.173-2.047 1.577-.842.643-2.653 1.1-.979.405-3.894.512-3.894-.512-1.103-.459-2.529-1.046-3.115-2.393-2.393-3.115-.96-2.318-.14-.335-.405-.979-.377-2.848-.135-1.046.372-2.837.14-1.057 1.098-2.65.407-.978 2.393-3.123 3.115-2.39 2.529-1.05.124-.048.979-.406 2.848-.377 1.046-.135 2.837.376 1.057.136 2.65 1.098.978.407 2.893 2.22.226.173M74.744 56.31l.064.492.309 2.356.14 1.046-.377 2.837-.136 1.054-1.098 2.653-.407.982-1.75 2.28-.639.835-1.787 1.37-1.332 1.023-3.632 1.505-3.894.512-3.894-.512-3.632-1.505-1.332-1.023-1.783-1.37-2.393-3.115-1.505-3.632-.14-1.053-.372-2.841.451-3.402.064-.492 1.099-2.65.406-.978 1.75-2.284.64-.835 3.123-2.393 3.627-1.505 2.3-.301.549-.076 1.042-.135 2.837.376 1.054.136 2.653 1.098.982.407 3.115 2.393 2.393 3.115 1.505 3.632"/>
</svg>
