<svg xmlns="http://www.w3.org/2000/svg" width="120" height="120" viewBox="0 0 120 118">
    <path stroke="red" stroke-width=".004" d="M75.88-66v-12.999h.037l.45-.023.485-.072.476-.119.463-.165.033-.015.41-.195.42-.253.396-.294.363-.328.33-.364.293-.395.251-.421.211-.444.165-.463.12-.476.072-.486.021-.43.003-.058h7.995l.002.037.022.451.072.486.12.476.165.463.209.444.253.421.292.395.103.114.228.25.363.328.394.294.42.253.445.21.462.165.476.12.486.071.488.023v13H75.88" transform="matrix(3.7298 0 0 3.7001 -256.893 336.708)"/>
</svg>
