<svg xmlns="http://www.w3.org/2000/svg" width="120" height="120" viewBox="0 0 120 120">
    <path stroke="red" stroke-width=".015" d="m69.988 112.997-1.19.88-1.263.76-1.336.633-1.392.496-1.43.358-1.464.218-1.475.075-1.475-.075-1.46-.218-.467-.113-.967-.245-1.392-.496-1.336-.633-1.264-.76-1.189-.88-.369-.331-.722-.659-.655-.722-.339-.373-.88-1.189-.76-1.264-.632-1.336-.497-1.392-.357-1.434-.219-1.46-.06-1.241-.011-.23v-41.39l.071-1.476.219-1.46.357-1.433.497-1.393.632-1.332.76-1.268.88-1.185.34-.376.496-.546.158-.173.718-.655.373-.338 1.19-.88 1.263-.761 1.336-.628 1.392-.5.967-.242.467-.113 1.46-.222 1.475-.071 1.475.075 1.46.215 1.434.357 1.392.5 1.336.629 1.264.76 1.189.88.373.34.714.654.659.719.339.376.376.508.504.677.76 1.268.632 1.332.497 1.393.357 1.43.219 1.463.071 1.475v41.391l-.011.23-.06 1.241-.219 1.464-.357 1.43-.497 1.396-.632 1.336-.76 1.264-.504.677-.376.512-.34.376-.5.546-.154.173-.718.65-.373.34m-13.546-11.643V79.022h7.526v22.336Zm0 0"/>
    <path fill="#f9f9f9" d="M56.504 90.195V79.051h7.402v22.289h-7.402Zm0 0"/>
</svg>
