<svg xmlns="http://www.w3.org/2000/svg" width="120" height="120" viewBox="0 0 120 120">
    <path stroke="red" stroke-width=".015" d="M52.68 26.155h22.576v.147l.087 1.693.27 1.825.452 1.787.617 1.742.79 1.675.162.267.79 1.317.177.24.922 1.242 1.242 1.374 1.366 1.242.68.5.81.598 1.58.952.14.064 1.535.726 1.738.621 1.791.452 1.829.267.813.038.828.045h.195v48.916H26.34V44.97h.15l1.686-.087 1.829-.27 1.392-.347.399-.101 1.742-.621 1.67-.79 1.585-.952.24-.177.565-.414.677-.508.828-.745.546-.497 1.238-1.366 1.102-1.49.952-1.584.79-1.67.621-1.743.452-1.787.17-1.167.097-.662.083-1.64v-.196h7.525"/>
    <path fill="#f9f9f9" d="M45.176 70.395v-4.653l.426-.047c2.496-.277 4.437-1.906 5.058-4.242.235-.871.215-2.133-.047-3.004-.312-1.05-.64-1.601-1.445-2.406-.543-.547-.832-.773-1.293-1.008-.746-.387-1.469-.61-2.16-.664l-.54-.047v-9.297h9.31l.046.426c.274 2.41 1.801 4.266 4.102 4.984.722.227 2.273.247 3.031.043 2.254-.613 3.98-2.632 4.188-4.898l.046-.555h9.297v9.297l-.476.043a5.735 5.735 0 0 0-4.969 4.192c-.207.761-.187 2.312.04 3.03.269.872.71 1.645 1.28 2.259 1.012 1.082 2.203 1.68 3.7 1.847l.425.047v9.305h-30.02Zm0 0"/>
</svg>
