<svg xmlns="http://www.w3.org/2000/svg" width="120" height="120" viewBox="0 0 120 120">
    <path stroke="red" stroke-width=".015" d="M52.68 26.155h22.576v.147l.087 1.693.27 1.825.452 1.787.617 1.742.79 1.675.162.267.79 1.317.177.24.196.264.726.978 1.242 1.374 1.366 1.242 1.49 1.098 1.58.952 1.675.79 1.738.621 1.791.452 1.374.2.455.067 1.637.083h.2v48.916H26.34V44.97h.15l1.686-.087.433-.064L30 44.611l1.396-.346.399-.101 1.742-.621 1.67-.79 1.585-.952.24-.177 1.242-.922.828-.745.546-.497 1.238-1.366.726-.978.376-.512.952-1.584.79-1.67.621-1.743.452-1.787.056-.414.113-.753.098-.662.083-1.64v-.196h7.525"/>
    <path fill="#f9f9f9" d="M57.773 55.625c-4.699-1.668-6.558-7.195-3.75-11.145 1.418-1.996 3.52-3.074 5.997-3.074 4.144 0 7.312 3.176 7.32 7.336.008 4.824-5.074 8.48-9.567 6.883M46.426 78.043c-2.196-.816-3.832-2.508-4.606-4.758-.5-1.453-.52-2.57-.082-4.078 1.184-4.047 5.489-6.348 9.38-5.008 3.073 1.055 4.929 3.66 4.929 6.91 0 2.532-.992 4.547-2.922 5.93-1.887 1.36-4.637 1.77-6.7 1.004m22.587 0c-2.196-.816-3.828-2.508-4.606-4.758-.515-1.504-.523-2.836-.02-4.3 1.364-3.958 5.497-6.102 9.274-4.801 3.098 1.066 4.973 3.675 4.973 6.921 0 4.165-3.188 7.352-7.305 7.305-.754-.012-1.797-.176-2.316-.367m0 0"/>
</svg>
