<svg xmlns="http://www.w3.org/2000/svg" width="120" height="120" viewBox="0 0 120 120">
    <path stroke="red" stroke-width=".015" d="M52.68 26.155h22.576v.147l.087 1.693.207 1.41.064.415.451 1.787.617 1.742.79 1.675.952 1.584.177.24.196.264.726.978 1.242 1.374.963.873.403.365 1.49 1.102 1.58.952 1.675.79 1.738.621.82.204.971.244 1.374.203.455.068 1.637.083h.2v48.916H26.34V44.97h.15l1.686-.087.433-.064L30 44.611l1.795-.447 1.742-.621 1.67-.79 1.585-.952.24-.177 1.242-.922 1.374-1.242 1.238-1.366.726-.978.376-.512.952-1.584.256-.538.534-1.129.621-1.746.452-1.787.056-.414.113-.753.098-.662.083-1.64v-.196h7.525"/>
    <path fill="#f9f9f9" d="M59.27 78.668c-2.344-.29-4.598-1.883-5.676-4.016-.813-1.601-.801-1.398-.801-14.73V47.594l.375-1.117c.93-2.762 3.16-4.664 5.984-5.09 3.516-.535 7.07 1.722 8.133 5.164.285.914.297 1.398.297 13.476 0 11.028-.031 12.625-.238 13.332-1.024 3.485-4.473 5.754-8.074 5.309m2.894-4.043c.371-.219.84-.617 1.047-.883.844-1.11.82-.73.82-13.683 0-7.758-.054-12.118-.156-12.477-.605-2.184-3.383-3.305-5.484-2.215-.864.45-1.63 1.406-1.895 2.371-.098.352-.152 4.758-.148 12.375.007 12.64-.008 12.344.742 13.438.367.539 1.11 1.101 1.824 1.383.785.312 2.461.152 3.25-.309m0 0"/>
    <path fill="#f9f9f9" d="M58.41 63.809v-7.47h3.55v14.938h-3.55Zm0 0"/>
</svg>
