<svg xmlns="http://www.w3.org/2000/svg" width="120" height="120" viewBox="0 0 120 118">
    <path stroke="red" stroke-width=".004" d="M75.88-66v-12.999h.037l.45-.023.485-.072.476-.119.463-.165.033-.015.41-.195.42-.253.396-.294.363-.328.33-.364.293-.395.251-.421.211-.444.165-.463.12-.476.072-.486.021-.43.003-.058h7.995l.002.037.022.451.072.486.12.476.165.463.209.444.253.421.292.395.103.114.228.25.363.328.394.294.42.253.445.21.462.165.476.12.486.071.488.023v13H75.88m9.905-7.218-.595.192h-.626l-.595-.192-.506-.369-.368-.506-.192-.595v-.626l.192-.596.368-.505.506-.368.595-.193h.626l.595.193.506.368.368.505.194.596v.626l-.194.595-.368.506-.506.369" transform="matrix(3.7298 0 0 3.7001 -256.893 336.708)"/>
    <path fill="#f9f9f9" d="M57.363 66.102c-.984-.317-1.062-.36-1.976-1.016-.91-.656-.977-.723-1.64-1.629-.677-.926-.7-.973-1.048-2.055l-.36-1.109v-2.184L52.7 57c.348-1.082.371-1.125 1.047-2.05.664-.91.73-.977 1.64-1.634.926-.668.977-.691 2.028-1.023l1.074-.336h2.38l1.073.336c1.051.328 1.098.352 2.024 1.023.91.657.98.723 1.644 1.637.684.934.704.973 1.051 2.055l.356 1.101v2.184l-.356 1.102c-.347 1.082-.367 1.12-1.05 2.054-.665.914-.735.98-1.645 1.637-.926.672-.973.695-2.024 1.023l-1.074.336-2.476-.015Zm0 0"/>
</svg>
