<svg xmlns="http://www.w3.org/2000/svg" width="120" height="120" viewBox="0 0 120 136">
    <path stroke="red" stroke-width=".004" d="m76.382-22.772-1.041 6.388L75-14.29 72.997-1.998h22.006L94.677-4 93-14.291l-.341-2.093-1.041-6.388v-.03h-.007L91-23.22l-2-1.367-5-3.416-5 3.416-2 1.367-.61.417h-.008v.031M71 0l2.73-16.384L75-24l1.382-.921.618-.413 5.52-3.68h.001L84-30l7 4.666.618.413L93-24l1.27 7.616L96.332-4l.334 2.002L97 0H71m19.288-18v1.942h-5.431v3.668h4.752v1.93h-4.752v4.53H91V-4H77v-1.93h5.843v-4.53h-4.43v-1.93h4.43v-3.668H77.68V-18h12.61m-4.453 8.906.001-.001 1.324-1.138.445.448.482.488.49.505.47.5.092.1.333.37.347.418-1.322 1.264-.019.018-.015.015-.02.018-.015.015-.326-.429-.405-.492-.457-.53-.48-.544-.11-.123-.368-.408Zm0 0" transform="matrix(4.29492 0 0 4.26451 -300.644 132.2)"/>
    <path fill="#f9f9f9" d="M13.094 122.91c.058-.347 3.324-20.25 7.261-44.234 3.934-23.985 7.184-43.633 7.22-43.668.292-.27 32.394-21.969 32.523-21.98.218-.024 32.562 21.91 32.644 22.136.094.262 14.434 87.797 14.434 88.106 0 .246-3.864.27-47.094.27H12.988Zm77.18-11.96v-4.196H63.901V87.62h20.453v-8.394H63.902V63.785H87.23v-8.394H32.965v8.394h22.144v15.442H36.008v8.394h19.101v19.133H29.922v8.394h60.351Zm-5.766-9.626.746-.761-1.508-1.727c-1.351-1.559-8.5-9.023-9.598-10.027l-.441-.41-.383.335c-.207.188-1.5 1.301-2.87 2.477-1.376 1.176-2.497 2.18-2.497 2.23 0 .047.973 1.157 2.164 2.461 3.23 3.547 5.817 6.516 7.516 8.63l1.515 1.89 2.305-2.168c1.27-1.195 2.64-2.512 3.05-2.93m0 0"/>
</svg>
