<svg xmlns="http://www.w3.org/2000/svg" width="120" height="120" viewBox="0 0 120 120">
    <path stroke="red" stroke-width=".004" d="M-77 39.93h-5.844v4.53h4.43v1.93h-4.43v3.667h5.165v1.944h-12.609v-1.944h5.431V46.39h-4.752v-1.93h4.752v-4.53H-91V38h14v1.93m-11.43.144.327.429.376.457.028.035.458.53.48.544.478.53.267.296.18.2-.18.154-1.145.983-.445-.447-.482-.488-.49-.505-.47-.5-.426-.47-.346-.417.464-.445.912-.87.015-.016M-71 34l-3.8 22.802L-75 58l-7.52 5.013L-84 64l-7.225-4.815L-93 58l-.199-1.197-3.8-22.802h26m-24.004 1.997L-93 48.291l1.383 8.481v.031h.008l7.61 5.2 7.611-5.2h.007v-.031l.778-4.771.604-3.71 2.003-12.293Zm0 0" transform="matrix(3.78963 0 0 3.7628 378.443 -124.173)"/>
    <path fill="#f9f9f9" d="M45.766 99.285a5552 5552 0 0 1-14.375-9.77c-.032-.027-2.899-17.363-6.371-38.523-3.473-21.164-6.356-38.73-6.407-39.031l-.093-.555h41.554c38.32 0 41.551.016 41.551.239 0 .273-12.652 77.507-12.738 77.742-.043.117-28.38 19.441-28.715 19.582-.047.015-6.531-4.336-14.406-9.684m38.41-31.453v-3.703h-19.54V50.504h16.708v-7.406H64.637V26.215H86.71v-7.406H33.46v7.406h23.27v16.883H38.831v7.406H56.73v13.625H36.145v7.406h48.03Zm-33.414-27.68a190 190 0 0 0 2.343-2c.141-.125-.273-.668-1.77-2.308-2.597-2.852-6.144-6.95-7.05-8.149a48 48 0 0 0-.847-1.093c-.063-.075-1.325 1.02-2.801 2.43l-2.688 2.562.274.383c.625.863 3.543 3.984 6.629 7.086 2.8 2.816 3.308 3.261 3.511 3.109.133-.098 1.211-1.008 2.399-2.02m0 0"/>
</svg>
